#!OML:ASF F:\VICON\USERDATA\INSTALL\rory3\rory3.ASF
:FULLY-SPECIFIED
:DEGREES
484
root 0.378974 16.1258 27.3745 3.0924 1.71058 6.17263
lowerback 13.1693 0.22152 -9.96184
upperback -5.97939 -1.61645 -0.0184302
thorax -13.9504 0.163127 6.01228
lowerneck -10.1887 -5.06456 -3.87099
upperneck 19.3289 -6.86414 2.71102
head 7.8725 -3.30346 0.853627
rclavicle 1.54058e-015 5.96354e-015
rhumerus -51.5217 -2.59747 -85.5683
rradius 23.5828
rwrist 8.58892
rhand -10.0127 22.4297
rfingers 7.12502
rthumb 15.9714 -6.93186
lclavicle 1.54058e-015 5.96354e-015
lhumerus -33.7114 -6.60772 89.8492
lradius 36.3996
lwrist 8.46422
lhand -7.78162 16.7971
lfingers 7.12502
lthumb 18.119 45.9732
rfemur -35.0688 14.891 9.44643
rtibia 30.8942
rfoot -11.999 -17.1343
rtoes 33.988
lfemur 8.41342 -16.2353 -34.523
ltibia 10.432
lfoot -13.7279 10.535
ltoes 0.546995
485
root 0.370034 16.129 27.5066 3.19887 1.77132 6.01906
lowerback 13.177 0.22048 -9.76729
upperback -6.11163 -1.58773 -0.00140839
thorax -14.1184 0.173793 5.91652
lowerneck -10.0197 -5.09969 -3.83587
upperneck 19.4725 -6.92134 2.66501
head 7.88873 -3.33388 0.830044
rclavicle 1.55797e-014 -1.78906e-014
rhumerus -51.6083 -2.85365 -85.4051
rradius 23.3865
rwrist 8.97916
rhand -9.79783 22.3653
rfingers 7.12502
rthumb 16.1783 -6.97958
lclavicle 1.55797e-014 -1.78906e-014
lhumerus -34.1961 -6.67828 89.9361
lradius 36.8144
lwrist 8.5784
lhand -7.98047 16.6334
lfingers 7.12502
lthumb 17.9276 45.8271
rfemur -35.1898 16.9655 8.53773
rtibia 29.1925
rfoot -12.9898 -18.067
rtoes 34.0689
lfemur 10.1541 -15.9535 -34.3728
ltibia 8.10723
lfoot -12.9914 10.2436
ltoes 0.312811
486
root 0.361619 16.1241 27.6402 3.25446 1.92907 6.18111
lowerback 13.0167 0.182291 -9.87698
upperback -6.0526 -1.64368 -0.0511689
thorax -13.9389 0.142173 5.92984
lowerneck -9.91226 -5.08819 -3.79608
upperneck 19.3588 -6.91553 2.68317
head 7.83059 -3.32853 0.834199
rclavicle -5.71506e-016 -9.93923e-016
rhumerus -51.2965 -2.98563 -85.3453
rradius 23.0839
rwrist 9.27684
rhand -9.75275 22.2046
rfingers 7.12502
rthumb 16.2217 -7.13677
lclavicle -5.71506e-016 -9.93923e-016
lhumerus -34.315 -6.678 89.9943
lradius 37.1319
lwrist 8.81212
lhand -8.09122 16.5845
lfingers 7.12502
lthumb 17.8211 45.7879
rfemur -35.3532 18.9347 7.26048
rtibia 27.8104
rfoot -13.9804 -18.9788
rtoes 33.6601
lfemur 12.5797 -15.7622 -34.5657
ltibia 4.7725
lfoot -11.8328 10.0311
ltoes -0.37147
487
root 0.356109 16.1138 27.7709 3.39246 2.09592 6.63954
lowerback 12.8486 0.169512 -10.186
upperback -6.02309 -1.71483 -0.192213
thorax -13.7902 0.11858 5.95564
lowerneck -10.0523 -5.2427 -3.99833
upperneck 19.451 -7.1091 2.76922
head 7.90455 -3.42446 0.870243
rclavicle -8.84592e-015 -1.45113e-014
rhumerus -50.8768 -3.14709 -85.2304
rradius 22.6596
rwrist 9.63594
rhand -9.72677 22.1819
rfingers 7.12502
rthumb 16.2467 -7.15735
lclavicle -8.84592e-015 -1.45113e-014
lhumerus -34.3857 -6.56434 90.0538
lradius 37.3168
lwrist 9.06091
lhand -7.96057 16.7081
lfingers 7.12502
lthumb 17.9468 45.9
rfemur -35.7149 20.5682 5.68592
rtibia 26.7363
rfoot -15.3387 -19.4389
rtoes 34.1681
lfemur 15.7301 -15.6096 -35.0334
ltibia -1.90833e-014
lfoot -10.0403 9.82425
ltoes -1.13843
488
root 0.343227 16.1056 27.8988 3.5298 2.22725 6.73993
lowerback 12.6953 0.183209 -10.2277
upperback -5.99273 -1.68658 -0.222898
thorax -13.6649 0.124988 5.93273
lowerneck -10.6195 -5.33517 -3.88862
upperneck 19.8261 -7.20853 2.56914
head 8.12366 -3.47235 0.756446
rclavicle -6.18717e-015 -4.59193e-014
rhumerus -50.4614 -3.61764 -84.8463
rradius 22.3163
rwrist 10.5092
rhand -9.43301 22.0358
rfingers 7.12502
rthumb 16.5296 -7.28016
lclavicle -6.18717e-015 -4.59193e-014
lhumerus -34.375 -6.50893 90.1642
lradius 37.284
lwrist 9.35217
lhand -7.69073 17.842
lfingers 7.12502
lthumb 18.2064 47.0099
rfemur -36.2089 22.1097 4.60656
rtibia 25.9334
rfoot -16.5047 -19.9596
rtoes 34.2344
lfemur 16.0925 -15.4213 -35.0848
ltibia -1.90833e-014
lfoot -10.2157 9.57043
ltoes -2.00797
489
root 0.324103 16.0977 28.0281 3.60789 2.30259 6.64163
lowerback 12.7088 0.208919 -10.1533
upperback -6.01098 -1.63591 -0.183448
thorax -13.7033 0.147278 5.92425
lowerneck -10.2161 -5.35095 -4.16656
upperneck 19.4849 -7.24456 2.87557
head 7.96125 -3.48796 0.913155
rclavicle -1.40392e-014 -9.54166e-015
rhumerus -50.1521 -4.05161 -84.4702
rradius 22.0984
rwrist 11.2783
rhand -9.00012 21.9067
rfingers 7.12502
rthumb 16.9463 -7.37397
lclavicle -1.40392e-014 -9.54166e-015
lhumerus -34.4909 -6.31893 90.1785
lradius 37.3612
lwrist 9.01582
lhand -7.11707 19.1754
lfingers 7.12502
lthumb 18.7582 48.291
rfemur -36.6151 23.4509 3.97338
rtibia 25.2953
rfoot -17.1562 -20.6867
rtoes 32.9864
lfemur 16.5087 -15.1608 -34.9159
ltibia -1.01778e-013
lfoot -10.3334 9.32424
ltoes -3.26856
490
root 0.310332 16.0873 28.1624 3.6531 2.42197 6.75217
lowerback 12.8514 0.253294 -10.1593
upperback -6.12057 -1.61085 -0.250587
thorax -13.9298 0.172537 5.8507
lowerneck -10.4638 -5.39032 -4.05652
upperneck 19.8201 -7.28851 2.7116
head 8.10867 -3.51074 0.826357
rclavicle -6.80837e-015 1.19271e-014
rhumerus -50.0654 -4.2247 -84.3823
rradius 21.9935
rwrist 11.1398
rhand -8.6825 21.691
rfingers 7.12502
rthumb 17.252 -7.56321
lclavicle -6.80837e-015 1.19271e-014
lhumerus -34.804 -6.03165 90.1539
lradius 37.3937
lwrist 8.49222
lhand -6.93378 19.0292
lfingers 7.12502
lthumb 18.9345 48.1277
rfemur -36.7759 24.2747 3.38434
rtibia 24.7668
rfoot -18.2456 -20.7613
rtoes 33.7806
lfemur 16.9747 -14.9388 -34.9952
ltibia 3.18055e-014
lfoot -10.5164 9.04596
ltoes -3.82901
491
root 0.294587 16.0756 28.3022 3.64468 2.62391 6.75903
lowerback 12.7706 0.230623 -10.1042
upperback -6.10274 -1.62174 -0.267359
thorax -13.8563 0.156357 5.80065
lowerneck -10.3473 -5.33535 -3.87924
upperneck 19.7538 -7.21516 2.56297
head 8.04987 -3.47904 0.760788
rclavicle 5.14355e-015 -9.93923e-016
rhumerus -49.8067 -4.43559 -84.2829
rradius 21.782
rwrist 11.1686
rhand -8.54914 21.6476
rfingers 7.12502
rthumb 17.3804 -7.59533
lclavicle 5.14355e-015 -9.93923e-016
lhumerus -35.0362 -5.74013 90.1076
lradius 37.3284
lwrist 8.30658
lhand -7.18172 17.5301
lfingers 7.12502
lthumb 18.696 46.6516
rfemur -36.8071 24.8518 3.12741
rtibia 24.4373
rfoot -19.3771 -20.7058
rtoes 34.9835
lfemur 17.5217 -14.7793 -34.9728
ltibia 2.54444e-014
lfoot -10.5921 8.83338
ltoes -5.3624
492
root 0.278278 16.06 28.4408 3.67386 2.83826 6.86704
lowerback 12.6739 0.169223 -10.1982
upperback -6.06322 -1.70989 -0.287354
thorax -13.7333 0.114008 5.84853
lowerneck -10.3755 -5.28331 -3.74175
upperneck 19.7902 -7.14727 2.46196
head 8.05537 -3.44568 0.711441
rclavicle 2.59662e-014 1.61016e-014
rhumerus -49.4844 -4.55064 -84.2266
rradius 21.5592
rwrist 11.5565
rhand -8.6289 21.5386
rfingers 7.12502
rthumb 17.3036 -7.7111
lclavicle 2.59662e-014 1.61016e-014
lhumerus -35.2057 -5.3831 90.0066
lradius 37.2361
lwrist 8.29383
lhand -6.94006 17.4186
lfingers 7.12502
lthumb 18.9285 46.5176
rfemur -36.8448 24.9421 3.0152
rtibia 24.3774
rfoot -20.1101 -20.4309
rtoes 35.7377
lfemur 18.0449 -14.6474 -35.0384
ltibia 6.36111e-014
lfoot -10.6059 8.60205
ltoes -6.61687
